<svg xmlns="http://www.w3.org/2000/svg" width="1000" height="1000"><rect width="1000" height="1000" x="0" y="0" fill="#ffffff" id="backgorund"/><g transform="translate(20,20)" id="visualization"><g><rect x="0" y="0" height="0.1232950604916141" width="10" fill="black"><title>La Réunion: 2</title></rect><rect x="475" y="0" height="0.1232950604916141" width="10" fill="black"><title>4: 2</title></rect><rect x="0" y="10.123295060491614" height="3.4522616937658768" width="10" fill="black"><title>Guyane: 56</title></rect><rect x="475" y="10.123295060491614" height="3.4522616937658768" width="10" fill="black"><title>3: 56</title></rect><rect x="0" y="23.57555675425749" height="4.376974647453153" width="10" fill="black"><title>Martinique: 71</title></rect><rect x="475" y="23.57555675425749" height="4.376974647453153" width="10" fill="black"><title>2: 71</title></rect><rect x="0" y="37.952531401710644" height="9.123834476381262" width="10" fill="black"><title>Guadeloupe: 148</title></rect><rect x="475" y="37.952531401710644" height="9.123834476381262" width="10" fill="black"><title>1: 148</title></rect><rect x="0" y="57.076365878091906" height="15.226939970717467" width="10" fill="black"><title>Corse: 247</title></rect><rect x="475" y="57.076365878091906" height="15.226939970717467" width="10" fill="black"><title>94: 247</title></rect><rect x="0" y="82.30330584880937" height="36.49533790552516" width="10" fill="black"><title>Bretagne: 592</title></rect><rect x="475" y="82.30330584880937" height="36.49533790552516" width="10" fill="black"><title>53: 592</title></rect><rect x="0" y="128.79864375433453" height="39.76265700855356" width="10" fill="black"><title>Hauts-de-France: 645</title></rect><rect x="475" y="128.79864375433453" height="39.76265700855356" width="10" fill="black"><title>32: 645</title></rect><rect x="0" y="178.5613007628881" height="43.02997611158207" width="10" fill="black"><title>Île-de-France: 698</title></rect><rect x="475" y="178.5613007628881" height="43.02997611158207" width="10" fill="black"><title>11: 698</title></rect><rect x="0" y="231.59127687447017" height="45.98905756338144" width="10" fill="black"><title>Normandie: 746</title></rect><rect x="475" y="231.59127687447017" height="45.98905756338144" width="10" fill="black"><title>28: 746</title></rect><rect x="0" y="287.5803344378516" height="46.79047545657704" width="10" fill="black"><title>Pays de la Loire: 759</title></rect><rect x="475" y="287.5803344378516" height="46.79047545657704" width="10" fill="black"><title>52: 759</title></rect><rect x="0" y="344.37080989442865" height="48.33166371272256" width="10" fill="black"><title>Provence-Alpes-Côte d'Azur: 784</title></rect><rect x="475" y="344.37080989442865" height="48.33166371272256" width="10" fill="black"><title>93: 784</title></rect><rect x="0" y="402.7024736071512" height="53.75664637435466" width="10" fill="black"><title>Centre-Val de Loire: 872</title></rect><rect x="475" y="402.7024736071512" height="53.75664637435466" width="10" fill="black"><title>24: 872</title></rect><rect x="950" y="0" height="73.66879864375437" width="10" fill="black"><title>Janssen: 1195</title></rect><rect x="0" y="466.45911998150586" height="74.47021653695003" width="10" fill="black"><title>Bourgogne-Franche-Comté: 1208</title></rect><rect x="475" y="466.45911998150586" height="74.47021653695003" width="10" fill="black"><title>27: 1208</title></rect><rect x="0" y="550.9293365184559" height="80.51167450104026" width="10" fill="black"><title>Grand Est: 1306</title></rect><rect x="475" y="550.9293365184559" height="80.51167450104026" width="10" fill="black"><title>44: 1306</title></rect><rect x="0" y="641.4410110194962" height="96.54003236495339" width="10" fill="black"><title>Occitanie: 1566</title></rect><rect x="475" y="641.4410110194962" height="96.54003236495339" width="10" fill="black"><title>76: 1566</title></rect><rect x="0" y="747.9810433844495" height="99.93064652847352" width="10" fill="black"><title>Auvergne-Rhône-Alpes: 1621</title></rect><rect x="475" y="747.9810433844495" height="99.93064652847352" width="10" fill="black"><title>84: 1621</title></rect><rect x="0" y="857.9116899129231" height="102.08831008707716" width="10" fill="black"><title>Nouvelle-Aquitaine: 1656</title></rect><rect x="475" y="857.9116899129231" height="102.08831008707716" width="10" fill="black"><title>75: 1656</title></rect><rect x="950" y="83.66879864375437" height="220.75980581027972" width="10" fill="black"><title>Moderna: 3581</title></rect><rect x="950" y="314.4286044540341" height="221.00639593126306" width="10" fill="black"><title>AstraZeneca: 3585</title></rect><rect x="950" y="545.4350003852971" height="284.56499961470286" width="10" fill="black"><title>Pfizer: 4616</title></rect></g><g fill="none" stroke-opacity="1"><g style="mix-blend-mode: multiply;"><path d="M10,591.185173768976C242.5,591.185173768976,242.5,591.185173768976,475,591.185173768976" stroke="#cccccc" stroke-width="80.5116745010403"/><title>Grand Est → 44: 1306</title></g><g style="mix-blend-mode: multiply;"><path d="M10,368.5366417507899C242.5,368.5366417507899,242.5,368.5366417507899,475,368.5366417507899" stroke="#cccccc" stroke-width="48.33166371272251"/><title>Provence-Alpes-Côte d'Azur → 93: 784</title></g><g style="mix-blend-mode: multiply;"><path d="M10,797.9463666486863C242.5,797.9463666486863,242.5,797.9463666486863,475,797.9463666486863" stroke="#cccccc" stroke-width="99.93064652847345"/><title>Auvergne-Rhône-Alpes → 84: 1621</title></g><g style="mix-blend-mode: multiply;"><path d="M10,310.9755721661401C242.5,310.9755721661401,242.5,310.9755721661401,475,310.9755721661401" stroke="#cccccc" stroke-width="46.79047545657702"/><title>Pays de la Loire → 52: 759</title></g><g style="mix-blend-mode: multiply;"><path d="M10,100.55097480157195C242.5,100.55097480157195,242.5,100.55097480157195,475,100.55097480157195" stroke="#cccccc" stroke-width="36.495337905525155"/><title>Bretagne → 53: 592</title></g><g style="mix-blend-mode: multiply;"><path d="M10,908.9558449564616C242.5,908.9558449564616,242.5,908.9558449564616,475,908.9558449564616" stroke="#cccccc" stroke-width="102.08831008707713"/><title>Nouvelle-Aquitaine → 75: 1656</title></g><g style="mix-blend-mode: multiply;"><path d="M10,254.58580565616086C242.5,254.58580565616086,242.5,254.58580565616086,475,254.58580565616086" stroke="#cccccc" stroke-width="45.989057563381365"/><title>Normandie → 28: 746</title></g><g style="mix-blend-mode: multiply;"><path d="M10,429.58079679432853C242.5,429.58079679432853,242.5,429.58079679432853,475,429.58079679432853" stroke="#cccccc" stroke-width="53.756646374354624"/><title>Centre-Val de Loire → 24: 872</title></g><g style="mix-blend-mode: multiply;"><path d="M10,148.67997225861134C242.5,148.67997225861134,242.5,148.67997225861134,475,148.67997225861134" stroke="#cccccc" stroke-width="39.762657008553596"/><title>Hauts-de-France → 32: 645</title></g><g style="mix-blend-mode: multiply;"><path d="M10,689.7110272019728C242.5,689.7110272019728,242.5,689.7110272019728,475,689.7110272019728" stroke="#cccccc" stroke-width="96.54003236495338"/><title>Occitanie → 76: 1566</title></g><g style="mix-blend-mode: multiply;"><path d="M10,200.0762888186791C242.5,200.0762888186791,242.5,200.0762888186791,475,200.0762888186791" stroke="#9b9b9b" stroke-width="43.02997611158203"/><title>Île-de-France → 11: 698</title></g><g style="mix-blend-mode: multiply;"><path d="M10,42.51444863990129C242.5,42.51444863990129,242.5,42.51444863990129,475,42.51444863990129" stroke="#cccccc" stroke-width="9.123834476381289"/><title>Guadeloupe → 1: 148</title></g><g style="mix-blend-mode: multiply;"><path d="M10,64.68983586345061C242.5,64.68983586345061,242.5,64.68983586345061,475,64.68983586345061" stroke="#cccccc" stroke-width="15.226939970717423"/><title>Corse → 94: 247</title></g><g style="mix-blend-mode: multiply;"><path d="M10,503.6942282499809C242.5,503.6942282499809,242.5,503.6942282499809,475,503.6942282499809" stroke="#cccccc" stroke-width="74.47021653694999"/><title>Bourgogne-Franche-Comté → 27: 1208</title></g><g style="mix-blend-mode: multiply;"><path d="M10,25.764044077984085C242.5,25.764044077984085,242.5,25.764044077984085,475,25.764044077984085" stroke="#cccccc" stroke-width="4.376974647453186"/><title>Martinique → 2: 71</title></g><g style="mix-blend-mode: multiply;"><path d="M10,11.849425907374561C242.5,11.849425907374561,242.5,11.849425907374561,475,11.849425907374561" stroke="#cccccc" stroke-width="3.452261693765893"/><title>Guyane → 3: 56</title></g><g style="mix-blend-mode: multiply;"><path d="M10,0.06164753024581952C242.5,0.06164753024581952,242.5,0.06164753024581952,475,0.06164753024581952" stroke="#cccccc" stroke-width="1"/><title>La Réunion → 4: 2</title></g><g style="mix-blend-mode: multiply;"><path d="M485,568.2214687524083C717.5,568.2214687524083,717.5,211.55660013870698,950,211.55660013870698" stroke="#17becf" stroke-width="22.871233721199044"/><title>44 → Moderna: 371</title></g><g style="mix-blend-mode: multiply;"><path d="M485,367.827695152963C717.5,367.827695152963,717.5,385.6623256530785,950,385.6623256530785" stroke="#cccccc" stroke-width="14.24057948678431"/><title>93 → AstraZeneca: 231</title></g><g style="mix-blend-mode: multiply;"><path d="M485,770.728982045157C717.5,770.728982045157,717.5,259.2409647838484,950,259.2409647838484" stroke="#cccccc" stroke-width="30.700470062418123"/><title>84 → Moderna: 498</title></g><g style="mix-blend-mode: multiply;"><path d="M485,830.157201202127C717.5,830.157201202127,717.5,776.736533867612,950,776.736533867612" stroke="#cccccc" stroke-width="35.50897742159204"/><title>84 → Pfizer: 576</title></g><g style="mix-blend-mode: multiply;"><path d="M485,326.97310626493027C717.5,326.97310626493027,717.5,624.343839099946,950,624.343839099946" stroke="#f1ac3c" stroke-width="14.795407258996686"/><title>52 → Pfizer: 240</title></g><g style="mix-blend-mode: multiply;"><path d="M485,92.41350080912378C717.5,92.41350080912378,717.5,96.73807505586811,950,96.73807505586811" stroke="#744242" stroke-width="11.096555444247514"/><title>53 → Moderna: 180</title></g><g style="mix-blend-mode: multiply;"><path d="M485,910.4970332126071C717.5,910.4970332126071,717.5,521.4410110194959,950,521.4410110194959" stroke="#4ed9c3" stroke-width="27.987978731602063"/><title>75 → AstraZeneca: 454</title></g><g style="mix-blend-mode: multiply;"><path d="M485,270.18263080835317C717.5,270.18263080835317,717.5,609.5484318409493,950,609.5484318409493" stroke="#8c564b" stroke-width="14.795407258996686"/><title>28 → Pfizer: 240</title></g><g style="mix-blend-mode: multiply;"><path d="M485,300.55713955459663C717.5,300.55713955459663,717.5,144.91561994297606,950,144.91561994297606" stroke="#f1ac3c" stroke-width="13.870694305309392"/><title>52 → Moderna: 225</title></g><g style="mix-blend-mode: multiply;"><path d="M485,447.58187562610783C717.5,447.58187562610783,717.5,658.3732757956384,950,658.3732757956384" stroke="#d62728" stroke-width="17.75448871079602"/><title>24 → Pfizer: 288</title></g><g style="mix-blend-mode: multiply;"><path d="M485,131.72690144101097C717.5,131.72690144101097,717.5,9.401248362487475,950,9.401248362487475" stroke="#7f7f7f" stroke-width="5.856515373352854"/><title>32 → Janssen: 95</title></g><g style="mix-blend-mode: multiply;"><path d="M485,942.2455112892043C717.5,942.2455112892043,717.5,812.245511289204,950,812.245511289204" stroke="#4ed9c3" stroke-width="35.50897742159204"/><title>75 → Pfizer: 576</title></g><g style="mix-blend-mode: multiply;"><path d="M485,405.96979271017966C717.5,405.96979271017966,717.5,36.06380519380442,950,36.06380519380442" stroke="#d62728" stroke-width="6.5346382060568695"/><title>24 → Janssen: 106</title></g><g style="mix-blend-mode: multiply;"><path d="M485,616.6456037604994C717.5,616.6456037604994,717.5,705.7185790244278,950,705.7185790244278" stroke="#17becf" stroke-width="29.590814517993373"/><title>44 → Pfizer: 480</title></g><g style="mix-blend-mode: multiply;"><path d="M485,683.6387454727598C717.5,683.6387454727598,717.5,465.24928720043147,950,465.24928720043147" stroke="#343784" stroke-width="31.748478076597056"/><title>76 → AstraZeneca: 515</title></g><g style="mix-blend-mode: multiply;"><path d="M485,383.82522925175317C717.5,383.82522925175317,717.5,640.6187870848423,950,640.6187870848423" stroke="#cccccc" stroke-width="17.75448871079602"/><title>93 → Pfizer: 288</title></g><g style="mix-blend-mode: multiply;"><path d="M485,718.7470139477539C717.5,718.7470139477539,717.5,739.7480157201202,950,739.7480157201202" stroke="#343784" stroke-width="38.468058873391385"/><title>76 → Pfizer: 624</title></g><g style="mix-blend-mode: multiply;"><path d="M485,417.3437620405333C717.5,417.3437620405333,717.5,169.2663943900748,950,169.2663943900748" stroke="#d62728" stroke-width="16.213300454650536"/><title>24 → Moderna: 263</title></g><g style="mix-blend-mode: multiply;"><path d="M485,657.3152500577947C717.5,657.3152500577947,717.5,233.44147337597292,950,233.44147337597292" stroke="#343784" stroke-width="20.898512753332817"/><title>76 → Moderna: 339</title></g><g style="mix-blend-mode: multiply;"><path d="M485,112.88048085073585C717.5,112.88048085073585,717.5,566.2718656083841,950,566.2718656083841" stroke="#744242" stroke-width="11.836325807197348"/><title>53 → Pfizer: 192</title></g><g style="mix-blend-mode: multiply;"><path d="M485,751.6798951991988C717.5,751.6798951991988,717.5,61.21599753409878,950,61.21599753409878" stroke="#cccccc" stroke-width="7.397703629498343"/><title>84 → Janssen: 120</title></g><g style="mix-blend-mode: multiply;"><path d="M485,799.2409647838485C717.5,799.2409647838485,717.5,494.28527394621244,950,494.28527394621244" stroke="#cccccc" stroke-width="26.32349541496494"/><title>84 → AstraZeneca: 427</title></g><g style="mix-blend-mode: multiply;"><path d="M485,881.5843415273179C717.5,881.5843415273179,717.5,289.50990213454577,950,289.50990213454577" stroke="#4ed9c3" stroke-width="29.83740463897665"/><title>75 → Moderna: 484</title></g><g style="mix-blend-mode: multiply;"><path d="M485,356.05301687601144C717.5,356.05301687601144,717.5,156.50535562919015,950,156.50535562919015" stroke="#cccccc" stroke-width="9.308777067118749"/><title>93 → Moderna: 151</title></g><g style="mix-blend-mode: multiply;"><path d="M485,185.5274716806657C717.5,185.5274716806657,717.5,119.05448100485478,950,119.05448100485478" stroke="#ff7f0e" stroke-width="11.219850504739153"/><title>11 → Moderna: 182</title></g><g style="mix-blend-mode: multiply;"><path d="M485,45.59682515219227C717.5,45.59682515219227,717.5,552.9559990752871,950,552.9559990752871" stroke="#1f77b4" stroke-width="2.959081451799337"/><title>1 → Pfizer: 48</title></g><g style="mix-blend-mode: multiply;"><path d="M485,69.34422439700998C717.5,69.34422439700998,717.5,557.394621252986,950,557.394621252986" stroke="#cccccc" stroke-width="5.918162903598674"/><title>94 → Pfizer: 96</title></g><g style="mix-blend-mode: multiply;"><path d="M485,484.7376126993914C717.5,484.7376126993914,717.5,188.74701394775377,950,188.74701394775377" stroke="#9467bd" stroke-width="22.747938660707405"/><title>27 → Moderna: 369</title></g><g style="mix-blend-mode: multiply;"><path d="M485,432.0775217692842C717.5,432.0775217692842,717.5,399.40972489789624,950,399.40972489789624" stroke="#d62728" stroke-width="13.254219002851197"/><title>24 → AstraZeneca: 215</title></g><g style="mix-blend-mode: multiply;"><path d="M485,102.46204823919236C717.5,102.46204823919236,717.5,326.8814055636896,950,326.8814055636896" stroke="#744242" stroke-width="9.00053941588965"/><title>53 → AstraZeneca: 146</title></g><g style="mix-blend-mode: multiply;"><path d="M485,590.7536410572553C717.5,590.7536410572553,717.5,438.27849271788546,950,438.27849271788546" stroke="#17becf" stroke-width="22.193110888495028"/><title>44 → AstraZeneca: 360</title></g><g style="mix-blend-mode: multiply;"><path d="M485,151.05340217307537C717.5,151.05340217307537,717.5,336.6217153425291,950,336.6217153425291" stroke="#7f7f7f" stroke-width="10.480080141789319"/><title>32 → AstraZeneca: 170</title></g><g style="mix-blend-mode: multiply;"><path d="M485,24.346150882330235C717.5,24.346150882330235,717.5,315.0759035216152,950,315.0759035216152" stroke="#2ca02c" stroke-width="1.29459813516221"/><title>2 → AstraZeneca: 21</title></g><g style="mix-blend-mode: multiply;"><path d="M485,529.0930107112586C717.5,529.0930107112586,717.5,679.0868459582338,950,679.0868459582338" stroke="#9467bd" stroke-width="23.672651614394695"/><title>27 → Pfizer: 384</title></g><g style="mix-blend-mode: multiply;"><path d="M485,12.096016028357838C717.5,12.096016028357838,717.5,547.0378361716885,950,547.0378361716885" stroke="#e377c2" stroke-width="2.959081451799337"/><title>3 → Pfizer: 48</title></g><g style="mix-blend-mode: multiply;"><path d="M485,64.22747938660697C717.5,64.22747938660697,717.5,320.22347229714114,950,320.22347229714114" stroke="#cccccc" stroke-width="4.315327117207366"/><title>94 → AstraZeneca: 70</title></g><g style="mix-blend-mode: multiply;"><path d="M485,506.6841334669031C717.5,506.6841334669031,717.5,416.6093858364799,950,416.6093858364799" stroke="#9467bd" stroke-width="21.1451028743161"/><title>27 → AstraZeneca: 343</title></g><g style="mix-blend-mode: multiply;"><path d="M485,313.53394467134166C717.5,313.53394467134166,717.5,372.50057794559604,950,372.50057794559604" stroke="#f1ac3c" stroke-width="12.082915928180627"/><title>52 → AstraZeneca: 196</title></g><g style="mix-blend-mode: multiply;"><path d="M485,197.5179163134776C717.5,197.5179163134776,717.5,348.24227479386605,950,348.24227479386605" stroke="#ff7f0e" stroke-width="12.761038760884642"/><title>11 → AstraZeneca: 207</title></g><g style="mix-blend-mode: multiply;"><path d="M485,244.29066810510898C717.5,244.29066810510898,717.5,131.32233952377285,950,131.32233952377285" stroke="#8c564b" stroke-width="13.315866533097017"/><title>28 → Moderna: 216</title></g><g style="mix-blend-mode: multiply;"><path d="M485,40.510903906912155C717.5,40.510903906912155,717.5,84.93257301379367,950,84.93257301379367" stroke="#1f77b4" stroke-width="2.5275487400786005"/><title>1 → Moderna: 41</title></g><g style="mix-blend-mode: multiply;"><path d="M485,140.23426061493407C717.5,140.23426061493407,717.5,107.86545426523853,950,107.86545426523853" stroke="#7f7f7f" stroke-width="11.158202974493333"/><title>32 → Moderna: 181</title></g><g style="mix-blend-mode: multiply;"><path d="M485,212.74485628419504C717.5,212.74485628419504,717.5,593.3043076211759,950,593.3043076211759" stroke="#ff7f0e" stroke-width="17.692841180550204"/><title>11 → Pfizer: 287</title></g><g style="mix-blend-mode: multiply;"><path d="M485,162.4273715034291C717.5,162.4273715034291,717.5,578.3239577714418,950,578.3239577714418" stroke="#7f7f7f" stroke-width="12.267858518918086"/><title>32 → Pfizer: 199</title></g><g style="mix-blend-mode: multiply;"><path d="M485,59.573090853047596C717.5,59.573090853047596,717.5,88.69307235878867,950,88.69307235878867" stroke="#cccccc" stroke-width="4.993449949911382"/><title>94 → Moderna: 81</title></g><g style="mix-blend-mode: multiply;"><path d="M485,290.6010634198968C717.5,290.6010634198968,717.5,22.7479386607074,950,22.7479386607074" stroke="#f1ac3c" stroke-width="6.041457964090314"/><title>52 → Janssen: 98</title></g><g style="mix-blend-mode: multiply;"><path d="M485,862.2886645603762C717.5,862.2886645603762,717.5,69.29182399630113,950,69.29182399630113" stroke="#4ed9c3" stroke-width="8.753949294906372"/><title>75 → Janssen: 142</title></g><g style="mix-blend-mode: multiply;"><path d="M485,256.8667642752562C717.5,256.8667642752562,717.5,360.540957077907,950,360.540957077907" stroke="#8c564b" stroke-width="11.836325807197348"/><title>28 → AstraZeneca: 192</title></g><g style="mix-blend-mode: multiply;"><path d="M485,469.91138167527174C717.5,469.91138167527174,717.5,42.783385990598745,950,42.783385990598745" stroke="#9467bd" stroke-width="6.904523387531786"/><title>27 → Janssen: 112</title></g><g style="mix-blend-mode: multiply;"><path d="M485,179.23942359559211C717.5,179.23942359559211,717.5,13.007628881867918,950,13.007628881867918" stroke="#ff7f0e" stroke-width="1.3562456654080295"/><title>11 → Janssen: 22</title></g><g style="mix-blend-mode: multiply;"><path d="M485,347.8847191184404C717.5,347.8847191184404,717.5,29.28257686676427,950,29.28257686676427" stroke="#cccccc" stroke-width="7.027818448023425"/><title>93 → Janssen: 114</title></g><g style="mix-blend-mode: multiply;"><path d="M485,644.1535023503122C717.5,644.1535023503122,717.5,54.80465438853356,950,54.80465438853356" stroke="#343784" stroke-width="5.424982661632118"/><title>76 → Janssen: 88</title></g><g style="mix-blend-mode: multiply;"><path d="M485,84.58426446790469C717.5,84.58426446790469,717.5,4.192032056715727,950,4.192032056715727" stroke="#744242" stroke-width="4.561917238190644"/><title>53 → Janssen: 74</title></g><g style="mix-blend-mode: multiply;"><path d="M485,234.61200585651534C717.5,234.61200585651534,717.5,16.70648069661709,950,16.70648069661709" stroke="#8c564b" stroke-width="6.041457964090314"/><title>28 → Janssen: 98</title></g><g style="mix-blend-mode: multiply;"><path d="M485,553.8575942051323C717.5,553.8575942051323,717.5,49.16390537104107,950,49.16390537104107" stroke="#17becf" stroke-width="5.856515373352854"/><title>44 → Janssen: 95</title></g><g style="mix-blend-mode: multiply;"><path d="M485,26.47299067581101C717.5,26.47299067581101,717.5,549.9969176234878,950,549.9969176234878" stroke="#2ca02c" stroke-width="2.959081451799337"/><title>2 → Pfizer: 48</title></g><g style="mix-blend-mode: multiply;"><path d="M485,10.369885181474892C717.5,10.369885181474892,717.5,0.2465901209832781,950,0.2465901209832781" stroke="#e377c2" stroke-width="1"/><title>3 → Janssen: 8</title></g><g style="mix-blend-mode: multiply;"><path d="M485,38.599830469291746C717.5,38.599830469291746,717.5,1.2637743700393003,950,1.2637743700393003" stroke="#1f77b4" stroke-width="1.29459813516221"/><title>1 → Janssen: 21</title></g><g style="mix-blend-mode: multiply;"><path d="M485,42.945981351622024C717.5,42.945981351622024,717.5,316.8945056638669,950,316.8945056638669" stroke="#1f77b4" stroke-width="2.342606149341142"/><title>1 → AstraZeneca: 38</title></g><g style="mix-blend-mode: multiply;"><path d="M485,23.637204284503312C717.5,23.637204284503312,717.5,0.5548277722123757,950,0.5548277722123757" stroke="#2ca02c" stroke-width="1"/><title>2 → Janssen: 2</title></g><g style="mix-blend-mode: multiply;"><path d="M485,0.06164753024581952C717.5,0.06164753024581952,717.5,545.496647915543,950,545.496647915543" stroke="#bcbd22" stroke-width="1"/><title>4 → Pfizer: 2</title></g></g><g><text x="14" y="0.06164753024580705" text-anchor="start"><tspan alignment-baseline="middle" x="14" style="font-family: Arial, sans-serif; font-size: 10px; fill: black; font-weight: bold;">La Réunion</tspan></text><text x="489" y="0.06164753024580705" text-anchor="start"><tspan alignment-baseline="middle" x="489" style="font-family: Arial, sans-serif; font-size: 10px; fill: black; font-weight: bold;">4</tspan></text><text x="14" y="11.849425907374552" text-anchor="start"><tspan alignment-baseline="middle" x="14" style="font-family: Arial, sans-serif; font-size: 10px; fill: black; font-weight: bold;">Guyane</tspan></text><text x="489" y="11.849425907374552" text-anchor="start"><tspan alignment-baseline="middle" x="489" style="font-family: Arial, sans-serif; font-size: 10px; fill: black; font-weight: bold;">3</tspan></text><text x="14" y="25.764044077984067" text-anchor="start"><tspan alignment-baseline="middle" x="14" style="font-family: Arial, sans-serif; font-size: 10px; fill: black; font-weight: bold;">Martinique</tspan></text><text x="489" y="25.764044077984067" text-anchor="start"><tspan alignment-baseline="middle" x="489" style="font-family: Arial, sans-serif; font-size: 10px; fill: black; font-weight: bold;">2</tspan></text><text x="14" y="42.514448639901275" text-anchor="start"><tspan alignment-baseline="middle" x="14" style="font-family: Arial, sans-serif; font-size: 10px; fill: black; font-weight: bold;">Guadeloupe</tspan></text><text x="489" y="42.514448639901275" text-anchor="start"><tspan alignment-baseline="middle" x="489" style="font-family: Arial, sans-serif; font-size: 10px; fill: black; font-weight: bold;">1</tspan></text><text x="14" y="64.68983586345064" text-anchor="start"><tspan alignment-baseline="middle" x="14" style="font-family: Arial, sans-serif; font-size: 10px; fill: black; font-weight: bold;">Corse</tspan></text><text x="489" y="64.68983586345064" text-anchor="start"><tspan alignment-baseline="middle" x="489" style="font-family: Arial, sans-serif; font-size: 10px; fill: black; font-weight: bold;">94</tspan></text><text x="14" y="100.55097480157195" text-anchor="start"><tspan alignment-baseline="middle" x="14" style="font-family: Arial, sans-serif; font-size: 10px; fill: black; font-weight: bold;">Bretagne</tspan></text><text x="489" y="100.55097480157195" text-anchor="start"><tspan alignment-baseline="middle" x="489" style="font-family: Arial, sans-serif; font-size: 10px; fill: black; font-weight: bold;">53</tspan></text><text x="14" y="148.67997225861131" text-anchor="start"><tspan alignment-baseline="middle" x="14" style="font-family: Arial, sans-serif; font-size: 10px; fill: black; font-weight: bold;">Hauts-de-France</tspan></text><text x="489" y="148.67997225861131" text-anchor="start"><tspan alignment-baseline="middle" x="489" style="font-family: Arial, sans-serif; font-size: 10px; fill: black; font-weight: bold;">32</tspan></text><text x="14" y="200.07628881867913" text-anchor="start"><tspan alignment-baseline="middle" x="14" style="font-family: Arial, sans-serif; font-size: 10px; fill: black; font-weight: bold;">Île-de-France</tspan></text><text x="489" y="200.07628881867913" text-anchor="start"><tspan alignment-baseline="middle" x="489" style="font-family: Arial, sans-serif; font-size: 10px; fill: black; font-weight: bold;">11</tspan></text><text x="14" y="254.5858056561609" text-anchor="start"><tspan alignment-baseline="middle" x="14" style="font-family: Arial, sans-serif; font-size: 10px; fill: black; font-weight: bold;">Normandie</tspan></text><text x="489" y="254.5858056561609" text-anchor="start"><tspan alignment-baseline="middle" x="489" style="font-family: Arial, sans-serif; font-size: 10px; fill: black; font-weight: bold;">28</tspan></text><text x="14" y="310.9755721661401" text-anchor="start"><tspan alignment-baseline="middle" x="14" style="font-family: Arial, sans-serif; font-size: 10px; fill: black; font-weight: bold;">Pays de la Loire</tspan></text><text x="489" y="310.9755721661401" text-anchor="start"><tspan alignment-baseline="middle" x="489" style="font-family: Arial, sans-serif; font-size: 10px; fill: black; font-weight: bold;">52</tspan></text><text x="14" y="368.53664175078995" text-anchor="start"><tspan alignment-baseline="middle" x="14" style="font-family: Arial, sans-serif; font-size: 10px; fill: black; font-weight: bold;">Provence-Alpes-Côte d'Azur</tspan></text><text x="489" y="368.53664175078995" text-anchor="start"><tspan alignment-baseline="middle" x="489" style="font-family: Arial, sans-serif; font-size: 10px; fill: black; font-weight: bold;">93</tspan></text><text x="14" y="429.58079679432853" text-anchor="start"><tspan alignment-baseline="middle" x="14" style="font-family: Arial, sans-serif; font-size: 10px; fill: black; font-weight: bold;">Centre-Val de Loire</tspan></text><text x="489" y="429.58079679432853" text-anchor="start"><tspan alignment-baseline="middle" x="489" style="font-family: Arial, sans-serif; font-size: 10px; fill: black; font-weight: bold;">24</tspan></text><text x="946" y="36.834399321877186" text-anchor="end"><tspan alignment-baseline="middle" x="946" style="font-family: Arial, sans-serif; font-size: 10px; fill: black; font-weight: bold;">Janssen</tspan></text><text x="14" y="503.6942282499809" text-anchor="start"><tspan alignment-baseline="middle" x="14" style="font-family: Arial, sans-serif; font-size: 10px; fill: black; font-weight: bold;">Bourgogne-Franche-Comté</tspan></text><text x="489" y="503.6942282499809" text-anchor="start"><tspan alignment-baseline="middle" x="489" style="font-family: Arial, sans-serif; font-size: 10px; fill: black; font-weight: bold;">27</tspan></text><text x="14" y="591.185173768976" text-anchor="start"><tspan alignment-baseline="middle" x="14" style="font-family: Arial, sans-serif; font-size: 10px; fill: black; font-weight: bold;">Grand Est</tspan></text><text x="489" y="591.185173768976" text-anchor="start"><tspan alignment-baseline="middle" x="489" style="font-family: Arial, sans-serif; font-size: 10px; fill: black; font-weight: bold;">44</tspan></text><text x="14" y="689.7110272019729" text-anchor="start"><tspan alignment-baseline="middle" x="14" style="font-family: Arial, sans-serif; font-size: 10px; fill: black; font-weight: bold;">Occitanie</tspan></text><text x="489" y="689.7110272019729" text-anchor="start"><tspan alignment-baseline="middle" x="489" style="font-family: Arial, sans-serif; font-size: 10px; fill: black; font-weight: bold;">76</tspan></text><text x="14" y="797.9463666486863" text-anchor="start"><tspan alignment-baseline="middle" x="14" style="font-family: Arial, sans-serif; font-size: 10px; fill: black; font-weight: bold;">Auvergne-Rhône-Alpes</tspan></text><text x="489" y="797.9463666486863" text-anchor="start"><tspan alignment-baseline="middle" x="489" style="font-family: Arial, sans-serif; font-size: 10px; fill: black; font-weight: bold;">84</tspan></text><text x="14" y="908.9558449564616" text-anchor="start"><tspan alignment-baseline="middle" x="14" style="font-family: Arial, sans-serif; font-size: 10px; fill: black; font-weight: bold;">Nouvelle-Aquitaine</tspan></text><text x="489" y="908.9558449564616" text-anchor="start"><tspan alignment-baseline="middle" x="489" style="font-family: Arial, sans-serif; font-size: 10px; fill: black; font-weight: bold;">75</tspan></text><text x="946" y="194.04870154889423" text-anchor="end"><tspan alignment-baseline="middle" x="946" style="font-family: Arial, sans-serif; font-size: 10px; fill: black; font-weight: bold;">Moderna</tspan></text><text x="946" y="424.9318024196656" text-anchor="end"><tspan alignment-baseline="middle" x="946" style="font-family: Arial, sans-serif; font-size: 10px; fill: black; font-weight: bold;">AstraZeneca</tspan></text><text x="946" y="687.7175001926486" text-anchor="end"><tspan alignment-baseline="middle" x="946" style="font-family: Arial, sans-serif; font-size: 10px; fill: black; font-weight: bold;">Pfizer</tspan></text></g><g><text x="5" y="-4" text-anchor="middle" style="font-family: Arial, sans-serif; font-size: 12px; fill: rgb(123, 123, 123); font-weight: bold;">Région</text><text x="480" y="-4" text-anchor="middle" style="font-family: Arial, sans-serif; font-size: 12px; fill: rgb(123, 123, 123); font-weight: bold;">Code région</text><text x="955" y="-4" text-anchor="middle" style="font-family: Arial, sans-serif; font-size: 12px; fill: rgb(123, 123, 123); font-weight: bold;">Type de vaccin</text></g></g></svg>